<mxfile host="Electron" modified="2023-12-02T14:00:25.105Z" agent="Mozilla/5.0 (Macintosh; Intel Mac OS X 10_15_7) AppleWebKit/537.36 (KHTML, like Gecko) draw.io/21.6.8 Chrome/114.0.5735.289 Electron/25.5.0 Safari/537.36" etag="dCKm7IAUw8zT0VNUY8oa" version="21.6.8" type="device">
  <diagram name="Page-1" id="w19uWSmFWyGYgHLxOPkc">
    <mxGraphModel dx="965" dy="774" grid="1" gridSize="10" guides="1" tooltips="1" connect="1" arrows="1" fold="1" page="1" pageScale="1" pageWidth="1100" pageHeight="850" math="0" shadow="0">
      <root>
        <mxCell id="0" />
        <mxCell id="1" parent="0" />
        <mxCell id="Mxfl7IE7KP1nImJ0M9zv-1" value="Ball Horizontal Position" style="rounded=1;whiteSpace=wrap;html=1;sketch=0;container=1;recursiveResize=0;verticalAlign=top;arcSize=6;fontStyle=1;autosize=0;points=[];absoluteArcSize=1;shadow=1;strokeColor=#001DBC;fillColor=#0050ef;fontColor=#ffffff;" vertex="1" parent="1">
          <mxGeometry x="160" y="120" width="130" height="110" as="geometry">
            <mxRectangle x="-98" y="-1230" width="99" height="26" as="alternateBounds" />
          </mxGeometry>
        </mxCell>
        <mxCell id="Mxfl7IE7KP1nImJ0M9zv-2" value="input" style="rounded=1;whiteSpace=wrap;html=1;sketch=0;points=[[0,0.5,0,0,0],[1,0.5,0,0,0]];arcSize=50;" vertex="1" parent="Mxfl7IE7KP1nImJ0M9zv-1">
          <mxGeometry x="-16.75" y="27.5" width="66" height="25" as="geometry" />
        </mxCell>
        <mxCell id="Mxfl7IE7KP1nImJ0M9zv-3" value="output" style="rounded=1;whiteSpace=wrap;html=1;sketch=0;points=[[0,0.5,0,0,0],[1,0.5,0,0,0]];fillColor=#1ba1e2;fontColor=#ffffff;strokeColor=#006EAF;arcSize=50;" vertex="1" parent="Mxfl7IE7KP1nImJ0M9zv-1">
          <mxGeometry x="84.75" y="27.5" width="66" height="25" as="geometry" />
        </mxCell>
        <mxCell id="Mxfl7IE7KP1nImJ0M9zv-4" value="error" style="rounded=1;whiteSpace=wrap;html=1;sketch=0;points=[[0,0.5,0,0,0],[1,0.5,0,0,0]];fillColor=#1ba1e2;fontColor=#ffffff;strokeColor=#006EAF;arcSize=50;" vertex="1" parent="Mxfl7IE7KP1nImJ0M9zv-1">
          <mxGeometry x="84.75" y="70" width="66" height="25" as="geometry" />
        </mxCell>
        <mxCell id="Mxfl7IE7KP1nImJ0M9zv-5" value="Sound" style="rounded=1;whiteSpace=wrap;html=1;sketch=0;container=1;recursiveResize=0;verticalAlign=top;arcSize=6;fontStyle=1;autosize=0;points=[];absoluteArcSize=1;shadow=1;strokeColor=#001DBC;fillColor=#0050ef;fontColor=#ffffff;" vertex="1" parent="1">
          <mxGeometry x="440" y="120" width="130" height="110" as="geometry">
            <mxRectangle x="-98" y="-1230" width="99" height="26" as="alternateBounds" />
          </mxGeometry>
        </mxCell>
        <mxCell id="Mxfl7IE7KP1nImJ0M9zv-6" value="input" style="rounded=1;whiteSpace=wrap;html=1;sketch=0;points=[[0,0.5,0,0,0],[1,0.5,0,0,0]];arcSize=50;" vertex="1" parent="Mxfl7IE7KP1nImJ0M9zv-5">
          <mxGeometry x="-16.75" y="27.5" width="66" height="25" as="geometry" />
        </mxCell>
        <mxCell id="Mxfl7IE7KP1nImJ0M9zv-7" value="output" style="rounded=1;whiteSpace=wrap;html=1;sketch=0;points=[[0,0.5,0,0,0],[1,0.5,0,0,0]];fillColor=#1ba1e2;fontColor=#ffffff;strokeColor=#006EAF;arcSize=50;" vertex="1" parent="Mxfl7IE7KP1nImJ0M9zv-5">
          <mxGeometry x="84.75" y="27.5" width="66" height="25" as="geometry" />
        </mxCell>
        <mxCell id="Mxfl7IE7KP1nImJ0M9zv-8" value="error" style="rounded=1;whiteSpace=wrap;html=1;sketch=0;points=[[0,0.5,0,0,0],[1,0.5,0,0,0]];fillColor=#1ba1e2;fontColor=#ffffff;strokeColor=#006EAF;arcSize=50;" vertex="1" parent="Mxfl7IE7KP1nImJ0M9zv-5">
          <mxGeometry x="84.75" y="70" width="66" height="25" as="geometry" />
        </mxCell>
        <mxCell id="Mxfl7IE7KP1nImJ0M9zv-9" value="Ball Vertical Position" style="rounded=1;whiteSpace=wrap;html=1;sketch=0;container=1;recursiveResize=0;verticalAlign=top;arcSize=6;fontStyle=1;autosize=0;points=[];absoluteArcSize=1;shadow=1;strokeColor=#001DBC;fillColor=#0050ef;fontColor=#ffffff;" vertex="1" parent="1">
          <mxGeometry x="160" y="320" width="130" height="110" as="geometry">
            <mxRectangle x="-98" y="-1230" width="99" height="26" as="alternateBounds" />
          </mxGeometry>
        </mxCell>
        <mxCell id="Mxfl7IE7KP1nImJ0M9zv-10" value="input" style="rounded=1;whiteSpace=wrap;html=1;sketch=0;points=[[0,0.5,0,0,0],[1,0.5,0,0,0]];arcSize=50;" vertex="1" parent="Mxfl7IE7KP1nImJ0M9zv-9">
          <mxGeometry x="-16.75" y="27.5" width="66" height="25" as="geometry" />
        </mxCell>
        <mxCell id="Mxfl7IE7KP1nImJ0M9zv-11" value="output" style="rounded=1;whiteSpace=wrap;html=1;sketch=0;points=[[0,0.5,0,0,0],[1,0.5,0,0,0]];fillColor=#1ba1e2;fontColor=#ffffff;strokeColor=#006EAF;arcSize=50;" vertex="1" parent="Mxfl7IE7KP1nImJ0M9zv-9">
          <mxGeometry x="84.75" y="27.5" width="66" height="25" as="geometry" />
        </mxCell>
        <mxCell id="Mxfl7IE7KP1nImJ0M9zv-12" value="error" style="rounded=1;whiteSpace=wrap;html=1;sketch=0;points=[[0,0.5,0,0,0],[1,0.5,0,0,0]];fillColor=#1ba1e2;fontColor=#ffffff;strokeColor=#006EAF;arcSize=50;" vertex="1" parent="Mxfl7IE7KP1nImJ0M9zv-9">
          <mxGeometry x="84.75" y="70" width="66" height="25" as="geometry" />
        </mxCell>
      </root>
    </mxGraphModel>
  </diagram>
</mxfile>
